<svg width="16" height="10" viewBox="0 0 16 10" fill="none" xmlns="http://www.w3.org/2000/svg">
<path d="M1.16147 1.19003C1.36293 0.98863 1.63614 0.875488 1.92101 0.875488C2.20588 0.875488 2.47909 0.98863 2.68055 1.19003L7.99841 6.50789L13.3163 1.19003C13.5189 0.994338 13.7903 0.886053 14.0719 0.888501C14.3536 0.890948 14.6231 1.00393 14.8223 1.20312C15.0215 1.40231 15.1344 1.67176 15.1369 1.95344C15.1393 2.23512 15.031 2.5065 14.8354 2.70911L8.75795 8.78652C8.55649 8.98792 8.28328 9.10106 7.99841 9.10106C7.71354 9.10106 7.44033 8.98792 7.23887 8.78652L1.16147 2.70911C0.960066 2.50765 0.846924 2.23444 0.846924 1.94957C0.846924 1.6647 0.960066 1.3915 1.16147 1.19003Z" fill="#484848"/>
</svg>
