<?xml version="1.0" standalone="no"?>
<!DOCTYPE svg PUBLIC "-//W3C//DTD SVG 1.1//EN" "http://www.w3.org/Graphics/SVG/1.1/DTD/svg11.dtd" >
<svg xmlns="http://www.w3.org/2000/svg" xmlns:xlink="http://www.w3.org/1999/xlink" version="1.1">
<metadata>
Created by FontForge 20170731 at Sat Feb  6 00:10:42 2021
 By Aleksey,,,
Copyright (c) 1981, 1982, 1983, 1989 and 1993, Linotype Library GmbH or its affiliated Linotype-Hell companies. All rights reserved.

The digitally encoded machine readable software for producing the Typefaces licensed to you is now the property of Heidelberger Druckmaschinen AG and its licensors, and may not be reproduced, used, displayed, modified, disclosed or transferred without the express written approval of Heidelberger Druckmaschinen AG.

Copyright (c) 1988, 1990, 1993 Adobe Systems Incorporated. All Rights Reserved.
</metadata>
<defs>
<font id="HelveticaNeue-BoldItalic" horiz-adv-x="0" >
  <font-face 
    font-family="Helvetica Neue"
    font-weight="700"
    font-style="italic"
    font-stretch="normal"
    units-per-em="1000"
    panose-1="2 0 8 3 0 0 0 9 0 4"
    ascent="800"
    descent="-200"
    bbox="-51.0435 -208 1105.08 699"
    underline-thickness="50"
    underline-position="-225"
    unicode-range="U+000A-10FB"
  />
<missing-glyph horiz-adv-x="364" 
d="M33 0v666h265v-666h-265zM66 33h199v600h-199v-600z" />
    <glyph glyph-name=".notdef" horiz-adv-x="364" 
d="M33 0v666h265v-666h-265zM66 33h199v600h-199v-600z" />
    <glyph glyph-name=".null" 
 />
    <glyph glyph-name="nonmarkingreturn" horiz-adv-x="278" 
 />
    <glyph glyph-name="controlHT" 
 />
    <glyph glyph-name="space" unicode="&#xa;" horiz-adv-x="278" 
 />
    <glyph glyph-name="space" unicode=" " horiz-adv-x="278" 
 />
    <glyph glyph-name="u10D0" unicode="&#x10d0;" horiz-adv-x="454" 
d="M314 505q-13 -58 -13 -89t21 -51q53 -48 72 -97t5 -116q-16 -75 -74.5 -122t-152.5 -47q-45 0 -81 11.5t-58.5 34t-31 55.5t0.5 76q2 12 6.5 25.5t9.5 24.5q5 13 11 26h129q-6 -12 -11 -24q-5 -11 -9.5 -25t-7.5 -28q-6 -26 7.5 -47.5t47.5 -21.5q33 0 55.5 21t29.5 50
q7 33 2 59t-30 48q-21 19 -36 41t-23.5 50t-8.5 63.5t10 82.5h130z" />
    <glyph glyph-name="u10D1" unicode="&#x10d1;" horiz-adv-x="538" 
d="M18 221q8 37 24.5 65t38 50t46.5 39.5t50 35.5l-1 -1q29 21 52.5 40t28.5 42q5 21 5 26t-4 7l-59 33l-16 -77h-114l31 144q7 32 31 49t50 17q19 0 37 -10l137 -72q16 -8 24.5 -17t11.5 -21.5t0.5 -31.5t-8.5 -47q-5 -23 8.5 -42.5t32.5 -39.5q16 -17 31.5 -38.5t26 -47.5
t14 -57.5t-4.5 -68.5q-22 -105 -91 -160t-181 -55q-56 0 -98.5 18t-69 49.5t-35.5 75t2 95.5zM363 205q6 30 -1 52.5t-19.5 41.5t-27 36t-22.5 35q-20 -19 -43.5 -34.5t-45.5 -33.5t-39 -40t-23 -53q-6 -29 -0.5 -51t18.5 -37t32.5 -22.5t40.5 -7.5q42 0 79.5 27t50.5 87z
" />
    <glyph glyph-name="u10D2" unicode="&#x10d2;" horiz-adv-x="587" 
d="M23 36q8 37 24.5 66t38.5 52.5t46.5 42.5t48.5 37q27 20 47.5 38.5t23.5 36.5l8 37q8 38 1 55t-32 17q-20 0 -35 -17t-23 -57l-11 -52h-130l13 59q6 31 19 62.5t36.5 56.5t58 40.5t84.5 15.5q88 0 128.5 -43t25.5 -114l-14 -62q-3 -17 10.5 -36t33.5 -40q17 -18 34 -40.5
t29 -49t16.5 -57.5t-2.5 -65q-9 -44 -31 -83.5t-56.5 -69.5t-82 -48t-107.5 -18q-66 0 -109.5 20.5t-67 54t-29 75.5t3.5 86zM325 154q-21 20 -32 37q-11 -10 -22.5 -19t-22.5 -18q-30 -23 -59.5 -52.5t-38.5 -72.5q-6 -30 -2 -52.5t16.5 -37.5t31 -22.5t40.5 -7.5
q51 0 87.5 30t49.5 90q5 22 2 40t-10.5 33t-18.5 28t-21 24z" />
    <glyph glyph-name="u10D3" unicode="&#x10d3;" horiz-adv-x="949" 
d="M913 248q-13 -60 -37.5 -108.5t-62.5 -83.5t-89.5 -54t-117.5 -19q-67 0 -115 20.5t-77 56.5t-38 84.5t3 103.5q5 26 14 51.5t20 48.5q-14 25 -38.5 44.5t-62.5 19.5q-130 0 -164 -165q-11 -52 -2 -90t32.5 -66t56.5 -48t70 -35q32 -14 70 -29t75 -29t68 -25.5t48 -17.5
l18 -5l-1 -1h1l-5 -5l-60 -103q-27 14 -59 26q-27 11 -63 21.5t-76 17.5q-42 7 -71.5 8.5t-57.5 1.5h-200l23 107h109q-30 19 -53.5 45.5t-38.5 61t-19 76t6 89.5q13 61 39 111t64.5 85.5t89 55t113.5 19.5q33 0 59 -6t46 -15.5t34.5 -21.5t25.5 -25q37 32 85.5 50t111.5 18
q69 0 117 -22t76 -59.5t36 -86t-3 -102.5zM678 412q-67 0 -111.5 -45.5t-59.5 -118.5q-16 -73 13.5 -116t94.5 -43q64 0 109 43t61 116q15 73 -11.5 118.5t-95.5 45.5z" />
    <glyph glyph-name="u10D4" unicode="&#x10d4;" horiz-adv-x="541" 
d="M320 518q57 0 94.5 -17.5t58 -46.5t25.5 -67t-4 -79l-61 -285q-23 -108 -93 -169t-170 -61q-114 0 -166 66t-24 198h130q-8 -39 -6.5 -68.5t11.5 -48.5t26 -28.5t36 -9.5q51 0 83.5 34t46.5 99l52 246q6 28 7.5 51.5t-3.5 40.5t-18.5 27t-37.5 10t-42 -12t-31.5 -32.5
t-23.5 -48.5t-16 -59h-131q28 135 90.5 197.5t166.5 62.5z" />
    <glyph glyph-name="u10D5" unicode="&#x10d5;" horiz-adv-x="543" 
d="M56 293q8 40 25 80.5t46.5 72.5t72.5 52t103 20q58 0 97 -16.5t61.5 -44t28.5 -63t-2 -72.5q-10 -45 -37 -83t-65 -60q19 -10 35 -26t26.5 -37t14.5 -46t-2 -52q-9 -46 -32 -85t-59 -68t-85 -45.5t-111 -16.5q-57 0 -99 16.5t-67 50.5t-31.5 84t7.5 118h130
q-8 -35 -8 -64.5t8.5 -50.5t27.5 -33t50 -12q51 0 89 27t50 82q5 25 -1 43.5t-20.5 29.5t-35.5 16.5t-46 5.5q-11 0 -23.5 -0.5t-23.5 -0.5q-13 -1 -26 -1l23 111q13 -1 25 -1q11 -1 23.5 -1h23.5q41 0 69.5 23t38.5 68q8 41 -5.5 69t-57.5 28q-45 0 -72 -32t-38 -86h-128z
" />
    <glyph glyph-name="u10D6" unicode="&#x10d6;" horiz-adv-x="703" 
d="M386 -17q-59 0 -98 18t-60 50.5t-24.5 77t7.5 98.5l19 85q4 21 8 39.5t9 35.5q-11 -4 -22.5 -6t-25.5 -2q-42 0 -67.5 13t-39 35t-15.5 49t4 56q7 34 22.5 63t38 51t53.5 34.5t70 12.5q73 0 111.5 -33t33.5 -96l141 118l60 -89l-231 -177v-2q22 12 43.5 19t53.5 7
q54 0 93 -17t63 -46.5t31.5 -69t-2.5 -85.5q-10 -47 -30 -90t-52.5 -76t-80 -53t-113.5 -20zM336 203q-4 -21 -3.5 -41.5t7 -36.5t22 -25.5t41.5 -9.5q49 0 82.5 35t45.5 93q11 48 -6 81.5t-64 33.5q-23 0 -43.5 -9.5t-37 -26.5t-28.5 -41t-16 -53zM229 478q18 0 33 17
t20 43q6 29 -2 44.5t-26 15.5q-21 0 -35.5 -16.5t-20.5 -42.5q-5 -26 1 -43.5t30 -17.5z" />
    <glyph glyph-name="u10D7" unicode="&#x10d7;" horiz-adv-x="952" 
d="M21 250q12 54 37 102.5t63.5 85t90.5 58t117 21.5q63 0 109 -21t74 -56q32 31 78.5 54t111.5 23q59 0 104.5 -20.5t74 -56.5t38.5 -84.5t-2 -105.5q-13 -62 -42.5 -111.5t-72 -84t-96.5 -53t-117 -18.5l24 112q65 0 113 42t63 113q15 72 -8 116t-85 44q-26 0 -47 -6.5
t-38.5 -18t-31 -26t-25.5 -30.5q3 -38 -6 -79q-11 -54 -36 -102.5t-63 -85t-89.5 -58t-116.5 -21.5t-111.5 21.5t-75 58t-37.5 85t2 102.5zM151 250q-7 -32 -3.5 -60.5t17 -50t36 -34.5t54.5 -13q34 0 61.5 13t48 34.5t34 50t20.5 60.5t4.5 61t-14 51.5t-33 35.5t-53.5 13
q-37 0 -66 -13t-50 -35.5t-35 -51.5t-21 -61z" />
    <glyph glyph-name="u10D8" unicode="&#x10d8;" horiz-adv-x="603" 
d="M197 -18q-54 0 -93 20t-61.5 56.5t-28 87.5t8.5 113q12 57 39.5 105.5t68.5 84t94.5 56t117.5 20.5q62 0 109.5 -24.5t77 -64.5t39.5 -91.5t-2 -105.5q-27 -128 -104 -192.5t-185 -64.5l23 107q17 0 37 8t38.5 27.5t35 51.5t26.5 79q9 41 3.5 71.5t-21.5 50.5t-40.5 30
t-54.5 10q-61 0 -108.5 -41t-64.5 -122q-10 -47 -7 -79t14.5 -51.5t28 -27.5t32.5 -8z" />
    <glyph glyph-name="u10D9" unicode="&#x10d9;" horiz-adv-x="521" 
d="M291 517q69 0 111.5 -18.5t64 -47.5t25.5 -65t-4 -72q-11 -56 -39.5 -88t-65.5 -51q32 -22 48.5 -62.5t5.5 -91.5q-10 -46 -30 -85.5t-52.5 -69t-77 -46.5t-103.5 -17q-53 0 -95 15.5t-68.5 47t-34.5 80.5t6 117h125q-15 -69 8 -110.5t71 -41.5q45 0 77.5 26t43.5 80
q10 47 -14.5 73t-68.5 26q-11 0 -23 -1t-23 -3q-12 -2 -25 -3l25 120q11 -2 23 -3q11 -2 23.5 -2.5t24.5 -0.5q38 0 67.5 21.5t39.5 66.5q11 49 -14.5 74t-73.5 25z" />
    <glyph glyph-name="u10DA" unicode="&#x10da;" horiz-adv-x="1130" 
d="M287 517q68 0 104.5 -24t46.5 -63q13 19 29 35.5t36.5 27.5t46.5 17.5t60 6.5q69 0 106.5 -26t46.5 -69q30 43 71 69t106 26q57 0 92.5 -20.5t53.5 -56.5t19 -86t-11 -108q-11 -52 -34.5 -100t-59.5 -84.5t-85 -58t-110 -21.5l25 117q45 0 82.5 40t52.5 108
q17 80 9.5 121.5t-49.5 41.5q-33 0 -56.5 -22.5t-40 -57t-27.5 -77.5t-20 -83h-147l17 93q15 69 3.5 108t-56.5 39t-75 -38.5t-44 -107.5l-20 -94h-144q8 39 12.5 80.5t0.5 76t-17.5 57.5t-40.5 26q-40 -1 -72 -44t-50 -130q-11 -52 -3 -88.5t30 -62.5t56 -45t75 -37
q31 -13 68.5 -27.5t74 -27.5t67 -23.5t48.5 -16.5l20 -6l-1 -1l-1 -2l-63 -106q-27 14 -59 26q-27 11 -63 21.5t-76 17.5q-42 7 -71.5 8.5t-57.5 1.5h-204l23 107h102q-61 37 -86.5 105t-5.5 165q12 56 31.5 105.5t51 86.5t76.5 58.5t107 21.5z" />
    <glyph glyph-name="u10DB" unicode="&#x10db;" horiz-adv-x="543" 
d="M298 489q29 0 58 -7.5t47 -18.5q22 120 -74 120q-39 0 -67 -17t-36 -59h-127q10 48 32.5 82.5t53.5 57t69.5 33.5t80.5 11q119 0 168 -60.5t26 -171.5l-49 -230q-9 -42 -26.5 -85.5t-49 -79t-79 -58.5t-116.5 -23q-60 0 -101 20t-64 56t-27.5 84.5t7.5 105.5
q14 64 40.5 110t62.5 74.5t79.5 42t91.5 13.5zM223 91q43 0 79 37.5t51 107.5q14 66 -4.5 105.5t-60.5 39.5q-47 0 -86 -36.5t-55 -109.5q-16 -72 2 -108t74 -36z" />
    <glyph glyph-name="u10DC" unicode="&#x10dc;" horiz-adv-x="562" 
d="M119 595q20 95 100 95q25 0 46 -1.5t41 -4t42 -4t51 -1.5q30 0 61 3t57 7q30 4 59 10l-26 -117q-23 -8 -51 -13q-24 -5 -56.5 -8.5t-70.5 -3.5q-22 0 -44.5 1.5t-42.5 3.5q-23 2 -45 5l-20 -92q27 19 55.5 30.5t64.5 11.5q54 0 94 -19.5t64 -55.5t31 -86t-6 -111
q-26 -122 -97.5 -192t-193.5 -70q-66 0 -108 21.5t-63 58.5t-23.5 87t9.5 106zM174 258q-17 -78 2.5 -123t71.5 -45q51 0 91.5 39.5t58.5 124.5q15 69 -4.5 110t-68.5 41q-28 0 -53 -11.5t-44.5 -31.5t-33.5 -47t-20 -57z" />
    <glyph glyph-name="u10DD" unicode="&#x10dd;" horiz-adv-x="860" 
d="M479 -38l29 137q22 0 42 6.5t37.5 24t31.5 47t23 74.5q7 33 8.5 62t-3 50.5t-16 34t-30.5 12.5q-32 0 -54.5 -20t-39 -52.5t-27.5 -72.5t-20 -80h-151q8 36 14 75.5t4 72.5t-14 54.5t-40 22.5q-39 2 -71 -34.5t-50 -121.5q-11 -50 -4 -81t23 -48t38 -22.5t43 -5.5
l-24 -114q-51 0 -94.5 20t-72 56.5t-40 88t2.5 114.5q12 56 30.5 103t48 80.5t72.5 52.5t105 19q72 0 111 -26t47 -69q15 21 32 38.5t37.5 30t45.5 19.5t58 7q62 0 98.5 -23t54 -57.5t20 -73.5t-3.5 -70q-11 -50 -26.5 -87t-35.5 -65q17 2 32.5 4t27.5 4q14 2 26 3l-25 -119
q-32 2 -69 0t-79 -12q-33 -8 -66.5 -21t-84.5 -38h-1z" />
    <glyph glyph-name="u10DE" unicode="&#x10de;" horiz-adv-x="539" 
d="M536 479q-10 -44 -40 -71.5t-71 -45.5q40 -21 60.5 -59.5t7.5 -97.5q-9 -46 -30 -86.5t-55 -70.5t-81 -47.5t-109 -17.5q-57 0 -100 16.5t-69.5 50t-34 84t7.5 117.5h128q-16 -75 6.5 -118t73.5 -43t86 26.5t47 83.5q7 32 1 53t-20.5 33.5t-36.5 17.5t-47 5
q-11 0 -24.5 -1t-25.5 -3q-14 -2 -29 -3l25 119q11 -2 22 -3q10 -1 22 -1.5t24 -0.5q20 0 42.5 4t41.5 12.5t33 21t18 29.5q3 18 -3 28.5t-18.5 17t-28.5 9t-32 4.5q-32 4 -57.5 10.5t-42 22t-21.5 42.5t4 71h129q-1 -20 7 -29.5t22.5 -14t34 -7t42.5 -9.5q55 -16 80 -51
t11 -98z" />
    <glyph glyph-name="u10DF" unicode="&#x10df;" horiz-adv-x="570" 
d="M461 18q-9 -42 -30 -80.5t-55.5 -68.5t-83 -48t-110.5 -18q-57 0 -99 16.5t-66.5 50.5t-30.5 84t8 118h129q-14 -70 4.5 -115.5t71.5 -45.5q57 0 89.5 29.5t43.5 80.5l77 360q-13 -6 -32.5 -11.5t-41 -10.5t-42 -9t-35.5 -5q9 -8 14 -19t6.5 -27t-3.5 -40
q-5 -23 -16.5 -44.5t-30 -38t-42.5 -27t-53 -10.5t-52.5 5t-38 18.5t-19.5 38t4 64.5l92 -1q-3 -14 3.5 -22.5t19.5 -8.5q12 0 23 8t15 24q3 17 -5.5 35t-20.5 33q-14 18 -32 35l64 84q70 9 118.5 20t83.5 21t62 17t55 7q19 0 30 -6.5t15.5 -16.5t4.5 -22.5t-3 -25.5z" />
    <glyph glyph-name="u10E0" unicode="&#x10e0;" horiz-adv-x="806" 
d="M415 528q-26 -3 -46 -5.5t-38 -7.5q51 -7 75 -31.5t31 -61.5q32 43 71.5 69t104.5 26q62 0 98.5 -23.5t53 -61.5t16.5 -85.5t-10 -96.5q-28 -126 -97.5 -197t-190.5 -71l25 117q15 0 34 5.5t38 22t35.5 46t26.5 78.5q7 33 9 62t-2.5 50.5t-15.5 34t-30 12.5
q-32 0 -55 -19t-39.5 -50.5t-28 -71t-19.5 -79.5h-151q8 36 13.5 75t3.5 71t-14 52.5t-40 21.5q-39 2 -71 -34.5t-51 -121.5q-11 -50 -3 -81t25.5 -48t39.5 -22.5t39 -5.5l-24 -114q-51 0 -94.5 20.5t-72 57.5t-40 89t2.5 115q5 22 10.5 42.5t12.5 40.5q11 30 31 69.5
t51.5 78t77 69.5t107.5 44q34 7 68 13t62.5 14.5t48.5 20.5t27 32l133 -1q-9 -44 -28 -72.5t-48.5 -46t-69.5 -26.5t-92 -15z" />
    <glyph glyph-name="u10E1" unicode="&#x10e1;" horiz-adv-x="529" 
d="M480 187q-22 -100 -83 -152t-175 -52q-117 0 -162.5 60.5t-22.5 166.5l100 469h126l-96 -458q-29 -131 66 -131q45 0 78 26.5t44 75.5q8 36 -1 61t-21 47q-9 16 -17.5 34t-13.5 42t-4.5 55.5t9.5 74.5h127q-6 -31 -6.5 -53.5t3 -40.5t10 -31.5t14.5 -26.5
q16 -32 25.5 -73t-0.5 -94z" />
    <glyph glyph-name="u10E2" unicode="&#x10e2;" horiz-adv-x="761" 
d="M3 168q14 65 45 122.5t75 102.5t99.5 75t120.5 42q-9 12 -14 28.5t0 39.5q9 44 40.5 63.5t80.5 19.5q51 0 80.5 -25.5t21.5 -65.5q-5 -23 -17 -38.5t-26 -26.5q57 -16 99.5 -50.5t68 -82.5t33 -106.5t-5.5 -121.5q-16 -75 -51.5 -137.5t-88 -107.5t-121 -70.5
t-150.5 -25.5t-143.5 29t-99.5 78.5t-50.5 116t3.5 141.5zM577 157q14 70 -5 128.5t-63 91.5q0 -5 -0.5 -9.5t-1.5 -9.5q-9 -40 -40.5 -65.5t-81.5 -25.5t-80 22.5t-21 66.5q3 13 9 24q-61 -32 -104.5 -92t-58.5 -131q-11 -51 -2.5 -96t32 -78.5t60 -52.5t82.5 -19
q45 0 89.5 19t82 52.5t65 78.5t38.5 96zM361 352q-2 -12 8 -15.5t21 -3.5q12 0 23.5 3t13.5 16q2 7 -0.5 13.5t-6 12.5t-8 11.5t-6.5 11.5q-11 -12 -26.5 -23.5t-18.5 -25.5zM408 576q-3 -14 7.5 -26t17.5 -23q9 12 24 23.5t17 25.5q3 13 -7 16t-21 3q-12 0 -23.5 -4
t-14.5 -15z" />
    <glyph glyph-name="u10E3" unicode="&#x10e3;" horiz-adv-x="857" 
d="M391 518q55 0 84 -18t37 -50q22 32 53.5 50t93.5 18q54 0 88 -16t50.5 -47t17 -75t-11.5 -99l-50 -235q-12 -60 -46 -105t-83 -76t-110.5 -46.5t-130.5 -15.5t-122 14t-86 46t-43.5 83.5t5.5 125.5h130q-17 -80 20 -120.5t112 -40.5q44 0 82.5 9t68.5 26t50 43t27 61
l46 214q7 33 10.5 60t0.5 46t-13.5 29.5t-31.5 10.5q-37 0 -56.5 -32t-30.5 -86l-20 -92h-151l19 93q12 53 10 85t-33 32q-27 0 -43.5 -25t-39.5 -74q-13 -27 -27 -50.5t-32.5 -41t-42.5 -27.5t-56 -10q-60 0 -87.5 33t-16.5 84q3 16 6.5 29t6.5 21q4 10 6 17h103
q-1 -3 -3 -8t-3.5 -11.5t-3.5 -16.5q-4 -16 -1.5 -28t16.5 -12q11 0 19 8t16.5 23.5t20 39t30.5 54.5q12 20 26.5 38.5t32.5 33t39.5 23t47.5 8.5z" />
    <glyph glyph-name="u10E4" unicode="&#x10e4;" horiz-adv-x="773" 
d="M435 305q-20 -91 -77.5 -144t-156.5 -53q-47 0 -82 17.5t-56 47t-27.5 68.5t2.5 83q19 88 76 140.5t154 52.5q41 0 72.5 -11.5t54.5 -32.5q27 20 62 32t85 12q62 0 101.5 -20t60.5 -50t26 -66t-2 -67q-10 -45 -37 -76.5t-67 -54.5q18 -10 33 -27.5t24 -39.5t11.5 -48
t-3.5 -54q-10 -45 -36.5 -84t-69.5 -67t-103 -44t-136 -16q-62 0 -111 12.5t-80 40.5t-41.5 74t4.5 114h130q-15 -69 15.5 -101t105.5 -32q38 0 71 7.5t58 22.5t41.5 36t22.5 48q11 52 -15.5 74.5t-80.5 22.5h-38l23 107h40q37 0 67 22.5t41 72.5q17 86 -66 86q-30 0 -52 -9
t-39 -26q1 -17 0 -34t-5 -36zM161 310q-8 -38 3 -66t49 -28q41 0 64 29t32 70q8 39 -3 67t-46 28q-37 0 -62.5 -24.5t-36.5 -75.5z" />
    <glyph glyph-name="u10E5" unicode="&#x10e5;" horiz-adv-x="550" 
d="M443 25q-9 -45 -29.5 -85.5t-54 -71t-80.5 -48t-109 -17.5q-54 0 -96 14.5t-67.5 45.5t-32.5 79.5t7 116.5h128q-14 -69 7.5 -108.5t69.5 -39.5q51 0 84.5 31t46.5 90l34 160l1 4q13 74 -2 100.5t-62 26.5q-37 0 -64.5 -27.5t-35.5 -64.5h-129q9 40 27.5 76t48 63.5
t69 44t89.5 16.5q33 0 59 -6.5t45 -17.5l60 281h127z" />
    <glyph glyph-name="u10E6" unicode="&#x10e6;" horiz-adv-x="809" 
d="M608 517q57 0 94.5 -20.5t57.5 -55t23.5 -80.5t-7.5 -97q-14 -67 -42.5 -113.5t-66.5 -75t-83 -41t-92 -12.5l26 116q22 0 43 11t38 29t30 40.5t18 45.5q15 70 3.5 108t-53.5 38q-39 0 -72 -38.5t-47 -107.5l-20 -94h-151l20 95q14 68 2 106.5t-54 38.5q-91 0 -127 -175
q-11 -51 -3 -86t30.5 -59.5t56.5 -42t75 -35.5q31 -13 68.5 -28.5t73 -29.5t66 -26.5t48.5 -19.5l21 -6l-66 -109q-27 14 -59 26q-27 11 -63 21.5t-76 17.5q-42 7 -71 8.5t-57 1.5h-204l22 107h103q-62 37 -88 105t-5 165q12 56 30.5 105.5t48.5 86.5t74 58.5t106 21.5
q70 0 109.5 -24t48.5 -66q14 20 30 36.5t36.5 28.5t46 18.5t58.5 6.5z" />
    <glyph glyph-name="u10E7" unicode="&#x10e7;" horiz-adv-x="530" 
d="M185 364q-12 -54 2.5 -78.5t56.5 -24.5q23 0 43.5 7.5t37 25.5t30 47.5t22.5 74.5l42 9l34 -92q-10 -32 -28 -61q-15 -25 -39.5 -52t-59.5 -45l51 241l19 89h128l-103 -487q-10 -46 -28.5 -87t-49.5 -71.5t-76.5 -48.5t-108.5 -18q-118 0 -163 61t-16 198h130
q-17 -78 -3 -114t62 -36q43 0 77.5 27.5t46.5 84.5l34 161q-21 -11 -45.5 -17t-53.5 -6q-48 0 -85 12.5t-60 38t-31 62.5t3 87l32 153h128z" />
    <glyph glyph-name="u10E8" unicode="&#x10e8;" horiz-adv-x="565" 
d="M79 524q12 54 29.5 87t40 50.5t48 23.5t53.5 6q38 0 64 -12t34 -28q19 16 40 28t53 12q81 0 111 -41t11 -129l-56 -265q-10 -46 -29 -94.5t-51.5 -88.5t-80 -65.5t-114.5 -25.5q-62 0 -105.5 18t-68.5 50.5t-31.5 79t5.5 103.5q13 64 40.5 112.5t64.5 80t81.5 47.5
t92.5 16q32 0 63.5 -8t48.5 -22l14 65q7 33 2.5 44.5t-21.5 11.5t-26 -12t-16 -44h-116q8 32 2 44.5t-21 12.5t-26.5 -12.5t-18.5 -44.5h-117zM239 90q50 0 86.5 38t50.5 108q6 30 4.5 56.5t-10.5 46t-26 31t-42 11.5q-53 0 -89.5 -38t-52.5 -111q-15 -72 7 -107t72 -35z
" />
    <glyph glyph-name="u10E9" unicode="&#x10e9;" horiz-adv-x="522" 
d="M487 526q-6 -30 -26.5 -58t-50.5 -54q50 -23 66.5 -77.5t-0.5 -135.5q-9 -42 -27 -77.5t-36 -63.5q-21 -33 -45 -60h-139q29 34 53 68q20 29 39 64t26 67q6 26 6 49t-6.5 39.5t-20.5 26t-37 9.5q-41 0 -76.5 -33t-50.5 -92l-42 -198h-128l102 479q10 47 27.5 85.5t45 66
t67.5 42.5t95 15q51 0 84.5 -14.5t51.5 -37.5t23 -52t-1 -58zM204 397q30 11 56.5 25.5t47 31t34 34t16.5 34.5q12 59 -36 59q-38 0 -65 -30.5t-39 -89.5z" />
    <glyph glyph-name="u10EA" unicode="&#x10ea;" horiz-adv-x="574" 
d="M9 191q14 65 33 111t37 76q21 35 43 59l97 -43q-16 -22 -30 -53q-13 -26 -26 -64t-24 -87q-29 -137 -9 -212.5t92 -75.5q28 0 51.5 11t41.5 28.5t29.5 39.5t16.5 44q7 32 -1.5 53t-25 33.5t-37.5 17.5t-39 5q-10 0 -18.5 -0.5t-16.5 -0.5q-9 -1 -16 -1l24 113l20 -2
q8 -1 17 -1.5t15 -0.5q16 0 35 3t36 10.5t30 20t17 32.5q12 49 -49 65q-30 8 -49 18t-29 26.5t-11 41t7 60.5h128q-4 -20 1.5 -30t16 -15t24 -8t26.5 -8q25 -10 40 -27t22.5 -37.5t7.5 -43.5t-4 -45q-9 -45 -37.5 -72t-71.5 -45q40 -20 61 -64.5t8 -103.5q-10 -46 -34 -87
t-60.5 -72t-84.5 -49t-106 -18q-79 0 -125.5 34.5t-68 90.5t-21 127.5t16.5 145.5z" />
    <glyph glyph-name="u10EB" unicode="&#x10eb;" horiz-adv-x="554" 
d="M457 690h131l-94 -441q-10 -46 -31 -93.5t-54.5 -86t-81.5 -63t-112 -24.5q-122 0 -171.5 71t-20.5 203q28 132 103 201t182 69q30 0 61.5 -9t46.5 -24q2 11 4.5 25.5t5.5 24.5zM225 91q45 0 82.5 40.5t54.5 122.5q16 75 2.5 119t-65.5 44q-56 0 -93.5 -43.5
t-54.5 -118.5q-16 -75 2.5 -119.5t71.5 -44.5z" />
    <glyph glyph-name="u10EC" unicode="&#x10ec;" horiz-adv-x="532" 
d="M213 549q-3 -15 -5 -40t-3 -59q22 14 51 24t65 10q40 0 76 -11t61 -34t36 -60t0 -88q-8 -35 -23 -73.5t-34.5 -78.5t-42.5 -79.5t-45 -75.5q-53 -84 -115 -170h-121q-12 172 -20 317l-6 124t-5 115t-2.5 93t1.5 58q1 8 1.5 15.5t2.5 15.5q9 44 29.5 71t45.5 41.5t52 19
t51 4.5q35 0 56 -11t33 -28q16 17 40.5 28t59.5 11q28 0 52 -6t39 -24.5t19 -52t-8 -87.5h-106q9 40 2 51t-23 11q-6 0 -12 -1t-12 -6.5t-12 -18t-11 -36.5h-110q5 24 4.5 36.5t-5 18t-12 6.5t-15.5 1q-10 0 -18 -7t-11 -24zM206 334q2 -85 7 -177.5t10 -170.5q22 38 45 78
t42.5 78.5t33.5 72.5t19 59q11 48 -5 75.5t-51 27.5q-32 0 -57 -13t-44 -30z" />
    <glyph glyph-name="u10ED" unicode="&#x10ed;" horiz-adv-x="583" 
d="M520 129q-29 0 -46 4.5t-28 12.5l-28 -139q-10 -46 -30.5 -85t-53 -67.5t-76 -45t-100.5 -16.5q-116 0 -162 60t-17 195h134q-17 -78 -4.5 -112.5t59.5 -34.5q46 0 79.5 32t44.5 86l27 126q-10 -7 -22.5 -11.5t-30.5 -4.5q-46 0 -68.5 30.5t-11.5 78.5q11 56 35.5 80.5
t66.5 24.5q22 0 39 -7t29 -17l37 175q10 47 -3.5 66t-50.5 22q-9 -43 -19.5 -91.5t-18.5 -88.5h-126l61 289h114q36 0 71.5 -9.5t61.5 -32t38.5 -58.5t0.5 -90l-37 -175q14 7 33 12t47 5l-15 -72q-28 0 -47 -12t-36 -22q12 -11 26.5 -23t40.5 -13zM280 205q14 0 28.5 13
t28.5 22q-11 7 -19 19t-23 12q-13 0 -18.5 -10.5t-7.5 -22.5q-2 -11 -1 -22t12 -11z" />
    <glyph glyph-name="u10EE" unicode="&#x10ee;" horiz-adv-x="531" 
d="M307 440q54 0 92.5 -17t62 -46.5t30.5 -69t-3 -85.5q-10 -47 -29.5 -90.5t-52 -76.5t-79 -53t-109.5 -20q-59 0 -98.5 17t-62 46.5t-28 69.5t4.5 85l103 484h127l-31 -140l139 115l60 -82l-190 -146q27 9 64 9zM287 333q-45 0 -79 -33.5t-44 -92.5q-4 -24 -3.5 -45.5
t8 -37t22.5 -25t40 -9.5q50 0 83 35t45 93q10 48 -7.5 81.5t-64.5 33.5z" />
    <glyph glyph-name="u10EF" unicode="&#x10ef;" horiz-adv-x="792" 
d="M50 -45q-7 -33 1 -47.5t33 -14.5q20 0 32 10.5t15 27.5q3 12 -1.5 26t-25.5 14l11 71l186 122l-77 189q-11 26 -17.5 42t-14.5 16q-18 0 -23 -16.5t10 -43.5l-98 -62q-10 15 -16 33q-5 16 -8 37.5t3 47.5q4 19 16.5 39t32.5 36t47 26t60 10q43 0 70 -16.5t43 -53.5
l90 -208l201 131q9 6 15 14t7.5 14.5t-2 11.5t-13.5 5q-8 0 -21.5 -7.5t-26.5 -15.5q-15 -10 -32 -22l-45 73q21 18 39 32t35.5 23.5t36.5 14t43 4.5q66 0 95 -33.5t16 -93.5q-3 -17 -9 -29.5t-16 -23.5t-23.5 -21.5t-32.5 -23.5l-226 -148l94 -220q5 -11 9.5 -17.5
t13.5 -6.5q12 0 16 9t3 21t-5.5 23.5t-9.5 16.5l97 64q13 -16 22 -35q8 -17 12 -39t-1 -49q-5 -21 -18.5 -42t-34.5 -38.5t-47.5 -28t-57.5 -10.5q-35 0 -59 9t-39 21.5t-23 26.5t-12 24l-79 193l-129 -85q9 -9 15 -20q5 -11 8.5 -26t-1.5 -36q-11 -50 -60.5 -78.5
t-116.5 -28.5q-45 0 -68.5 13t-32.5 35t-6.5 51.5t9.5 63.5z" />
    <glyph glyph-name="u10F0" unicode="&#x10f0;" horiz-adv-x="469" 
d="M245 400q-9 0 -19 -0.5t-18 -0.5q-10 -1 -18 -1l22 102q9 -1 19 -1h39q24 0 35.5 6t13.5 20q3 13 -9.5 20.5t-56.5 15.5q-26 4 -38.5 15.5t-16.5 28.5t-1.5 38.5t7.5 45.5h128q-5 -24 2.5 -30t31.5 -13q46 -13 69 -37.5t12 -75.5q-5 -21 -17.5 -41t-32.5 -36
q44 -23 31 -82q-7 -32 -25.5 -52.5t-46.5 -33.5q32 -17 49 -54t7 -83q-8 -37 -25 -67.5t-45.5 -53t-69.5 -35t-96 -12.5q-114 0 -151 54t-14 165h125q-11 -55 0 -83t57 -28q42 0 63.5 17.5t28.5 49.5q4 20 -0.5 34.5t-15 24t-26 14t-32.5 4.5q-8 0 -17.5 -0.5t-17.5 -0.5
h-20l22 104q8 -1 17 -1h36q34 0 50 9t19 22q3 15 -10 23.5t-45 8.5z" />
    <glyph glyph-name="u10F1" unicode="&#x10f1;" horiz-adv-x="676" 
d="M269 -18q-66 0 -115.5 28.5t-79.5 79t-38.5 120.5t9.5 154q15 68 35.5 127.5t50.5 104t72 70t99 25.5q34 0 62.5 -7.5t46.5 -26t23.5 -49.5t-4.5 -78q-8 -36 -35.5 -68.5t-65 -59t-80.5 -47.5t-81 -34q-8 -50 -1.5 -92.5t23 -73.5t41.5 -48t55 -17q32 0 52.5 15t33.5 35
t14 37.5t-6.5 32t-20.5 25.5t-26 18q-8 4 -14.5 7.5t-11.5 5.5q-6 3 -11 5l69 95q5 -4 11 -8q5 -4 11.5 -8t14.5 -8q20 -10 41 -14t31 9q11 13 4 28t-32 29l-14 7t-11 6q-6 3 -11 6l63 87q4 -3 9 -7q5 -3 11 -7t14 -8q15 -8 28.5 -9.5t21.5 10.5q8 11 -2 24.5t-24 27.5
q-21 21 -28 43.5t-2 44.5q3 14 13.5 33.5t27.5 43.5l103 -52q-2 -5 -4.5 -10.5t-2.5 -12.5t3.5 -16t14.5 -21q15 -16 23 -34.5t9.5 -36.5t-2.5 -34.5t-13 -29.5q-14 -20 -33 -34.5t-44 -21.5q13 -22 9 -47.5t-22 -52.5q-18 -26 -42 -38t-53 -12q11 -22 16 -47t-1 -51
q-4 -26 -23 -54q-41 -59 -92.5 -84t-118.5 -25zM289 583q-26 0 -50 -39t-45 -109q39 17 70 41t39 61q5 22 3.5 34t-17.5 12z" />
    <glyph glyph-name="u10F2" unicode="&#x10f2;" horiz-adv-x="595" 
d="M-13 90q26 0 59 3t71 11q-39 35 -56.5 87.5t-4.5 109.5q12 56 39.5 97t65.5 67.5t83 39t92 12.5t90 -15t74 -45t44 -75.5t0 -106.5q-12 -57 -50 -97.5t-95 -74.5q34 -7 66.5 -10t60.5 -3l-23 -107q-62 0 -130 12t-131 36q-75 -25 -148 -36.5t-130 -11.5zM181 288
q-10 -48 15 -83t70 -59q57 23 98.5 57t52.5 81q12 56 -14 91t-78 35q-51 0 -91 -31.5t-53 -90.5z" />
    <glyph glyph-name="u10F3" unicode="&#x10f3;" horiz-adv-x="551" 
d="M315 228q52 -6 85 -25t50.5 -48.5t20 -67t-6.5 -79.5q-10 -46 -32 -85.5t-57 -68.5t-83.5 -45.5t-111.5 -16.5q-58 0 -101.5 17t-69.5 51t-33.5 85.5t6.5 119.5h129q-8 -35 -7.5 -65t9.5 -52t27 -34.5t46 -12.5q56 0 96 27.5t53 85.5q12 60 -17 89t-84 29q-11 0 -24.5 -1
t-24.5 -2q-13 -1 -27 -2l-22 68l203 199h-268l23 111h453l-18 -86z" />
    <glyph glyph-name="u10F4" unicode="&#x10f4;" horiz-adv-x="504" 
d="M263 408q-148 41 -123 159q6 28 19 51t35 39t54.5 25t77.5 9h86l-22 -108h-66q-29 0 -41 -8t-14 -19q-2 -10 1 -16.5t13.5 -12.5t30 -12.5l49.5 -16.5q80 -26 105 -71t12 -108q-11 -45 -36 -82.5t-68 -57.5q17 -12 28 -30t16 -39.5t4.5 -46t-5.5 -48.5
q-10 -45 -28.5 -85.5t-49 -71t-75.5 -48t-108 -17.5q-54 0 -94 15.5t-63.5 47t-29.5 80.5t9 117h128q-8 -35 -9 -63t6 -48t23.5 -30.5t44.5 -10.5q45 -1 75 28t41 82q11 51 -4.5 80t-68.5 29q-11 0 -22 -0.5t-21 -1.5q-11 -1 -23 -1l24 113l22 -2q10 -1 21.5 -1h23.5
q43 0 70 20t37 65q8 38 -14.5 60t-70.5 36z" />
    <glyph glyph-name="u10F5" unicode="&#x10f5;" horiz-adv-x="548" 
d="M207 518q-5 -20 2 -30t20 -15t30 -5.5t34 -0.5h41v3q23 112 -48 112q-32 0 -52 -14.5t-27 -49.5zM277 204h-47q-17 0 -33.5 -0.5t-30 -5t-23.5 -15t-14 -29.5q-4 -18 -1 -30.5t11 -20t20 -10.5t26 -3q35 0 57 25t34 83zM405 204q-8 -38 -23 -77t-41.5 -71.5t-66.5 -53
t-98 -20.5q-42 0 -78.5 9t-61.5 29t-35.5 52t0.5 79q10 50 32.5 81.5t53.5 49.5t68 25t76 7h70l9 43h-43q-39 0 -77 7t-66.5 25t-42 50t-2.5 82q10 46 29.5 78.5t47.5 52.5t64 29t78 9q59 0 95 -21t53.5 -53t20 -71.5t-5.5 -76.5v-1h98l-23 -110h-99l-9 -43h99l-24 -110h-98
z" />
    <glyph glyph-name="u10F6" unicode="&#x10f6;" horiz-adv-x="873" 
d="M571 505q54 0 109 -10t96 -37.5t60 -76t3 -126.5q-17 -80 -50.5 -130t-77.5 -78t-97.5 -37.5t-111.5 -9.5h-60l-4 -18q-9 -44 2 -62t42 -18q26 0 43 13t26 56h130q-6 -29 -18 -60.5t-36 -57.5t-62 -43t-96 -17q-53 0 -87 15t-52.5 42t-22 65t6.5 85h-40
q-57 0 -109.5 11.5t-89 40.5t-52.5 78.5t0 124.5q17 81 53.5 130.5t84.5 76t103.5 35t110.5 8.5h46l1 4q9 43 3.5 62.5t-30.5 19.5q-20 0 -34.5 -12.5t-19.5 -32.5h-128q14 63 61.5 104t128.5 41q42 0 74.5 -9.5t52 -31t25 -57.5t-5.5 -88h22zM153 256q-9 -44 -2 -72.5
t28.5 -45t55 -23t76.5 -6.5h25l62 288h-20q-45 0 -82.5 -5.5t-66 -21t-48 -43t-28.5 -71.5zM487 109q46 0 83 6.5t64.5 23t46.5 45t28 72.5t2 71.5t-28.5 42.5t-57 21t-82.5 6h-17l-61 -288h22z" />
    <glyph glyph-name="u10FB" unicode="&#x10fb;" horiz-adv-x="514" 
d="M61 137h140l-29 -137h-140zM139 505h140l-28 -137h-141zM303 318h141l-29 -137h-141z" />
  </font>
</defs>
</svg>
