<?xml version="1.0" standalone="no"?>
<!DOCTYPE svg PUBLIC "-//W3C//DTD SVG 20010904//EN"
 "http://www.w3.org/TR/2001/REC-SVG-20010904/DTD/svg10.dtd">
<svg version="1.0" xmlns="http://www.w3.org/2000/svg"
 width="85.000000pt" height="85.000000pt" viewBox="0 0 85.000000 85.000000"
 preserveAspectRatio="xMidYMid meet">
<metadata>
Created by potrace 1.14, written by Peter Selinger 2001-2017
</metadata>
<g transform="translate(0.000000,85.000000) scale(0.100000,-0.100000)"
fill="#000000" stroke="none">
<path d="M320 837 c-127 -36 -222 -117 -279 -237 -33 -70 -36 -82 -36 -170 0
-69 5 -109 19 -145 36 -95 22 -97 213 41 95 68 175 119 178 114 3 -6 3 -10 -2
-10 -4 0 -28 -19 -53 -41 -25 -23 -80 -72 -122 -111 -117 -105 -125 -155 -34
-213 76 -48 142 -65 241 -61 72 3 95 9 157 38 144 69 232 196 245 355 15 178
-93 349 -265 422 -66 28 -197 37 -262 18z m374 -237 c-20 -20 -43 2 -25 24 10
12 16 13 26 3 11 -10 11 -14 -1 -27z m-121 -60 c-3 -12 1 -22 11 -26 27 -10
-30 -71 -113 -120 -79 -46 -102 -54 -81 -29 6 8 9 19 6 24 -4 5 -1 13 5 17 8
5 9 3 4 -6 -5 -8 -3 -11 6 -8 8 3 14 10 14 17 0 6 20 30 45 51 38 33 47 37 56
25 17 -23 25 -5 8 20 -13 20 -13 24 1 39 23 23 44 21 38 -4z m-69 -29 c6 -9
-71 -67 -79 -60 -6 7 7 22 39 47 33 25 33 25 40 13z m-144 -186 c-12 -15 -30
-12 -30 5 0 8 31 19 39 13 2 -1 -2 -9 -9 -18z m-57 -39 c7 3 -1 -6 -18 -20
-36 -31 -43 -27 -19 9 10 15 20 23 22 16 2 -6 9 -9 15 -5z"/>
</g>
</svg>
